{"title":"Nasty Nymphos 15 (1996)","uid":6712182,"size":676530524,"categoryP":"porn","categoryS":"movies","magnet":"?xt=urn:btih:745496240219a172e37a707258ed2ee773064764&amp;dn=Nasty+Nymphos+15+%281996%29&amp;tr=udp%3A%2F%2Ftracker.openbittorrent.com%3A80&amp;tr=udp%3A%2F%2Fopen.demonii.com%3A1337&amp;tr=udp%3A%2F%2Ftracker.coppersurfer.tk%3A6969&amp;tr=udp%3A%2F%2Fexodus.desync.com%3A6969","seeders":0,"leechers":0,"uploader":"silviuss","files":1,"time":1317397322,"description":"Nasty Nymphos 15 (1996)\n\nCover: &lt;a href=&quot;\nhttp://imagebb.org/view.php?filename=626a64665_xlf.jpg&quot; rel=&quot;nofollow&quot; target=&quot;_NEW&quot;&gt;\nhttp://imagebb.org/view.php?filename=626a64665_xlf.jpg&lt;/a&gt;\n\nPreview: &lt;a href=&quot;\nhttp://imagebb.org/view.php?filename=309Nasty_Nymphos_15_1996_.jpg&quot; rel=&quot;nofollow&quot; target=&quot;_NEW&quot;&gt;\nhttp://imagebb.org/view.php?filename=309Nasty_Nymphos_15_1996_.jpg&lt;/a&gt;\n\nInfo:\nFormat                           : AVI\nFormat/Info                      : Audio Video Interleave\nFile size                        : 645 MiB\nDuration                         : 2h 17mn\nOverall bit rate                 : 658 Kbps\n\nVideo\nID                               : 0\nFormat                           : MPEG-4 Visual\nFormat profile                   : Simple@L3\nFormat settings, BVOP            : No\nFormat settings, QPel            : No\nFormat settings, GMC             : No warppoints\nFormat settings, Matrix          : Default (H.263)\nCodec ID                         : XVID\nCodec ID/Hint                    : XviD\nDuration                         : 2h 17mn\nBit rate                         : 523 Kbps\nWidth                            : 400 pixels\nHeight                           : 288 pixels\nDisplay aspect ratio             : 1.389\nFrame rate                       : 24.000 fps\nColor space                      : YUV\nChroma subsampling               : 4:2:0\nBit depth                        : 8 bits\nScan type                        : Progressive\nCompression mode                 : Lossy\nBits/(Pixel*Frame)               : 0.189\nStream size                      : 513 MiB (80%)\nWriting library                  : ZJMedia MPEG Encoder\n\nAudio\nID                               : 1\nFormat                           : MPEG Audio\nFormat version                   : Version 1\nFormat profile                   : Layer 3\nMode                             : Joint stereo\nMode extension                   : MS Stereo\nCodec ID                         : 55\nCodec ID/Hint                    : MP3\nDuration                         : 2h 17mn\nBit rate mode                    : Constant\nBit rate                         : 128 Kbps\nChannel(s)                       : 2 channels\nSampling rate                    : 44.1 KHz\nCompression mode                 : Lossy\nDelay relative to video          : 13ms\nStream size                      : 126 MiB (19%)\nAlignment                        : Split accross interleaves\nInterleave, duration             : 1000 ms (24.00 video frames)\n","torrent":{"xt":"urn:btih:745496240219a172e37a707258ed2ee773064764","amp;dn":"Nasty+Nymphos+15+%281996%29","amp;tr":["udp%3A%2F%2Ftracker.openbittorrent.com%3A80","udp%3A%2F%2Fopen.demonii.com%3A1337","udp%3A%2F%2Ftracker.coppersurfer.tk%3A6969","udp%3A%2F%2Fexodus.desync.com%3A6969"],"infoHash":"745496240219a172e37a707258ed2ee773064764","infoHashBuffer":{"type":"Buffer","data":[116,84,150,36,2,25,161,114,227,122,112,114,88,237,46,231,115,6,71,100]},"announce":[],"urlList":[]}}